# xmcd
#
# Track frame offsets: 
#        150
#        19359
#        35114
#        53059
#        73553
#        90639
#        106518
#        121393
#        139294
#        158136
#        172199
#        193732
#        208559
#        231258
#        249254
#        269830
#        287434
#        298746
#        316075
#        328804
#
# Disc length: 4621 seconds
#
# Revision: 0
# Processed by: cddbd v1.5.2PL0 Copyright (c) Steve Scherf et al.
# Submitted via: ExactAudioCopy v1.1
#
DISCID=30120b14
DTITLE=Various Artist - 1000 Klassiekers Radio 2 Vol. 05 - CD 4
DYEAR=2013
DGENRE=Pop
TTITLE0=Michael Jackson - Black Or White
TTITLE1=Céline Dion - I'm Alive
TTITLE2=Hooverphonic - Sometimes
TTITLE3=Indeep - Last Night A D.J. Saved My Life
TTITLE4=Soulsister - The Way To Your Heart
TTITLE5=The Weather Girls - It's Raining Men
TTITLE6=Shakira - Whenever Wherever
TTITLE7=Patrick Cowley Feat. Sylvester - Do Ya Wanna Funk
TTITLE8=Johan Verminnen - Laat Me Nu Toch Niet Alleen
TTITLE9=The Selecter - On My Radio
TTITLE10=V.O.F. De Kunst - Suzanne
TTITLE11=Nacht Und Nebel - Beats Of Love
TTITLE12=Randy Crawford - One Day I'll Fly Away
TTITLE13=Air Supply - All Out Of Love
TTITLE14=Champaign - How 'bout Us
TTITLE15=Gibson Brothers - Que Sera Mi Vida (If You Should Go)
TTITLE16=Buddy Holly - Peggy Sue
TTITLE17=Herbie Hancock - I Thought It Was You
TTITLE18=Bobby Vinton - Blue Velvet
TTITLE19=Level 42 - Running In The Family
EXTD=
EXTT0=
EXTT1=
EXTT2=
EXTT3=
EXTT4=
EXTT5=
EXTT6=
EXTT7=
EXTT8=
EXTT9=
EXTT10=
EXTT11=
EXTT12=
EXTT13=
EXTT14=
EXTT15=
EXTT16=
EXTT17=
EXTT18=
EXTT19=
PLAYORDER=
